# xmcd
#
# Track frame offsets:
#	150
#	11612
#	24345
#	40140
#	50902
#	60937
#	78110
#	87892
#	99667
#	111762
#
# Disc length: 1692 seconds
#
# Revision: 1
# Processed by: cddbd v1.4PL0 Copyright (c) Steve Scherf et al.
# Submitted via: audiograbber 1.81.02
#
DISCID=6e069a0a
DTITLE=D. J. Wilkinson - blow'n the Blues
DYEAR=1900
DGENRE=Blues
TTITLE0=Cruzin N Bluzin
TTITLE1=Blues Stay Away From Me
TTITLE2=Bright Lights Big City
TTITLE3=Prisoner of Love
TTITLE4=Uptown Blues
TTITLE5=St. Louis Blues
TTITLE6=Heart Break Hotel
TTITLE7=Tuff
TTITLE8=Then You Can Tell Me Goodbye
TTITLE9=Travlin Blues
EXTD=
EXTT0=
EXTT1=
EXTT2=
EXTT3=
EXTT4=
EXTT5=
EXTT6=
EXTT7=
EXTT8=
EXTT9=
PLAYORDER=
